<svg id="Layer_1" data-name="Layer 1" xmlns="http://www.w3.org/2000/svg" viewBox="0 0 122.88 89.1"><defs><style>.cls-1{fill:#4d4d4d;}.cls-1,.cls-2{fill-rule:evenodd;}.cls-2{fill:#2d7abe;}</style></defs><title>space-planet</title><path class="cls-1" d="M39.08,6a44.52,44.52,0,0,1,60.84,16.3c.16.28.32.56.47.84C99,25.57,89.51,32.3,77.71,39.8,71.32,43.87,64.22,48,57.2,51.71s-13.93,7.06-19.93,9.57c-7.29,3-12.77,5.28-14.36,5.78l-.14-.24A44.53,44.53,0,0,1,39.08,6Zm66.81,38.21A44.55,44.55,0,0,1,37.83,82.38a208.73,208.73,0,0,0,35.63-16l.08,0a209.2,209.2,0,0,0,32.35-22.1Z"/><path class="cls-2" d="M95.15,8.59c13.85-3.5,24-3.07,26.9,2.11,5.51,9.82-17.16,33-50.64,51.79S6.33,88.54.82,78.71C-2.12,73.47,3,64.41,13.48,54.24l-.44.42a54,54,0,0,0,5.58,14.55c4.95,9.16,91.06-38.2,85.8-48.73-.1-.2-.23-.4-.35-.61A49.34,49.34,0,0,0,95.15,8.59Z"/></svg>